<?xml version="1.0" encoding="utf-8"?>
<!-- Svg Vector Icons : http://www.onlinewebfonts.com/icon -->
<!DOCTYPE svg PUBLIC "-//W3C//DTD SVG 1.1//EN" "http://www.w3.org/Graphics/SVG/1.1/DTD/svg11.dtd">
<svg version="1.1" xmlns="http://www.w3.org/2000/svg" xmlns:xlink="http://www.w3.org/1999/xlink" x="0px" y="0px" viewBox="0 0 1000 1000" enable-background="new 0 0 1000 1000" xml:space="preserve">
<metadata> Svg Vector Icons : http://www.onlinewebfonts.com/icon </metadata>
<g><path d="M839.5,477.6c0,0,99.9-11.4,102.9-100.9c2.9-89.5-89.4-105.4-89.4-105.4C815.1,121.3,675.8,10,509.7,10c-166,0-305.2,111.2-343.2,261.1c0,0-95.2,14.6-91,107.8c4.2,93,104.6,98.7,104.6,98.7c1.2,3,22.3-2.9,29.9-4.1c-15.6-36.9-24.3-77.4-24.3-119.9c0-174,145.1-315.1,324-315.1c179,0,324.1,141,324.1,315.1c0,138-91.2,255.1-218,297.7c-8.1-7.6-19.1-12.3-31.3-12.3c-24.9,0-45.1,19.7-45.1,43.9c0,24.2,20.2,43.9,45.1,43.9c25,0,45.2-19.7,45.2-43.9c0-2-0.2-3.9-0.4-5.8C725.6,643.6,802.7,570.3,839.5,477.6L839.5,477.6z M52.9,990c17.6,0,31.8-13.8,31.8-30.9c0-184.5,177.9-335.4,399.6-342.3c8.1,0.7,16.3,1,24.6,1c6.2,0,12.2-0.2,18.3-0.6c34.1,1.9,67.1,7.1,98.5,15.4c24.5-12.8,48.1-26.9,70.7-42.1c-13.2-5-26.8-9.6-40.6-13.6c78.4-47.8,130.6-132.5,130.6-228.9c0-148.8-124.5-269.8-277.6-269.8c-153,0-277.6,121-277.6,269.8c0,94.1,49.8,177,125.1,225.3C162.3,625.1,21.1,778.5,21.1,959.1C21.1,976.2,35.3,990,52.9,990L52.9,990z M296.6,348c0-113.8,95.2-206.3,212.2-206.3c117,0,212.3,92.6,212.3,206.3c0,113.8-95.2,206.4-212.3,206.4C391.8,554.4,296.6,461.8,296.6,348L296.6,348z M765.9,623.1c-18.8,14-38.2,27.2-58.3,39.6c124,59.3,207.7,170,207.7,296.5c0,17.1,14.2,30.9,31.8,30.9c17.5,0,31.7-13.8,31.7-30.9C978.9,819.2,894.2,695.7,765.9,623.1L765.9,623.1z"/></g>
</svg>