<?xml version="1.0" encoding="utf-8"?>
<!-- Svg Vector Icons : http://www.onlinewebfonts.com/icon -->
<!DOCTYPE svg PUBLIC "-//W3C//DTD SVG 1.1//EN" "http://www.w3.org/Graphics/SVG/1.1/DTD/svg11.dtd">
<svg version="1.1" xmlns="http://www.w3.org/2000/svg" xmlns:xlink="http://www.w3.org/1999/xlink" x="0px" y="0px" viewBox="0 0 1000 1000" enable-background="new 0 0 1000 1000" xml:space="preserve">
<metadata> Svg Vector Icons : http://www.onlinewebfonts.com/icon </metadata>
<g><g transform="translate(0.000000,511.000000) scale(0.100000,-0.100000)"><path d="M3154,3753.9c-129.6-79.8-119.7,135.6-129.6-2642.7l-10-2531l-508.6-203.4l-508.6-203.4L1658.2-1699c-185.5,69.8-347,133.6-355,143.6c-18,16-2,21.9,789.8,319.1l492.6,185.5v317.1c0,303.2-2,319.1-37.9,309.1c-20-4-548.5-201.5-1170.8-434.8C547.3-1170.4,228.1-1298.1,188.2-1336c-117.7-117.7-117.7-311.1,0-424.8c77.8-73.8,4689-1809,4810.7-1809c59.8,0,730,243.3,2419.3,877.6c2112.1,793.8,2343.5,883.5,2401.3,945.4c85.8,91.7,101.7,189.5,53.8,307.1c-21.9,49.9-59.8,105.7-87.8,125.6s-596.3,243.3-1266.5,494.6C7851-568.1,7286.6-356.7,7268.6-348.7c-31.9,12-35.9-10-39.9-259.3l-6-273.3l-159.6-67.8c-87.8-35.9-171.5-65.8-183.5-67.8c-19.9,0-25.9,323.1-25.9,1551.7c0,1501.8-2,1551.7-39.9,1613.5C6740.1,2272,6722.1,2274,6036,2274c-686.1,0-706-4-771.9-125.6c-33.9-57.8-35.9-163.5-41.9-1344.3l-6-1282.4h-217.4h-219.4l-4,2040.3c-6,1876.8-8,2042.3-39.9,2100.2c-67.8,123.7-97.7,127.6-847.6,127.6C3269.7,3789.8,3209.9,3785.8,3154,3753.9z M3762.3,2942.1v-169.5h-219.4h-219.4v169.5v169.5h219.4h219.4V2942.1z M4480.3,2942.1v-169.5H4261h-219.4v169.5v169.5H4261h219.4V2942.1z M3758.3,2110.4l6-175.5h-221.4h-219.4v179.5v177.5l215.4-4l213.4-4L3758.3,2110.4z M5916.4,1615.8v-161.6l-193.5,6l-195.5,6l-6,127.6c-4,69.8-2,139.6,4,153.6c8,21.9,59.8,27.9,201.4,27.9h189.5V1615.8z M6554.6,1615.8v-159.6h-199.4h-199.4v159.6v159.6h199.4h199.4V1615.8z M4476.4,1272.8l6-175.5H4261h-219.4v179.5v181.5l215.4-6l213.4-6L4476.4,1272.8z M5916.4,857.9V696.4l-193.5,6l-195.5,6l-6,155.6l-6,153.6h201.4h199.5V857.9z M3758.3,435.1l6-175.5h-221.4h-219.4v179.5v181.5l215.4-6l213.4-6L3758.3,435.1z M4476.4,435.1l6-175.5H4261h-219.4v179.5v181.5l215.4-6l213.4-6L4476.4,435.1z M6554.6,100V-61.5l-193.5,6l-195.4,6l-6,155.6l-6,153.6h201.4h199.4V100z M8094.3-1308.1c309.1-115.7,576.4-217.4,594.3-227.4c37.9-21.9,61.8-10-624.3-267.3l-554.5-207.4l-556.5,231.3c-307.2,125.6-556.5,233.4-552.5,237.3c10,10,1097,442.8,1114.9,442.8C7523.9-1096.7,7785.2-1192.4,8094.3-1308.1z M3778.3-1828.6c259.3-105.7,478.7-197.4,486.7-203.4c8-8-171.5-85.8-398.9-175.5l-414.8-163.6l-492.6,183.5c-269.2,101.7-496.6,189.5-500.6,195.4c-8,8,765.9,333.1,841.7,355C3303.6-1635.2,3519-1720.9,3778.3-1828.6z M6534.6-1968.2c257.3-105.7,476.7-197.4,484.6-205.4c8-8-442.8-185.5-1003.2-396.9l-1017.2-382.9l-548.5,205.4c-301.2,113.7-548.5,209.4-548.5,215.4s454.7,191.5,1013.2,410.9c1001.2,396.9,1011.2,400.9,1081,373C6034-1764.8,6277.3-1862.5,6534.6-1968.2z"/></g></g>
</svg>