<?xml version="1.0" encoding="utf-8"?>
<!-- Svg Vector Icons : http://www.onlinewebfonts.com/icon -->
<!DOCTYPE svg PUBLIC "-//W3C//DTD SVG 1.1//EN" "http://www.w3.org/Graphics/SVG/1.1/DTD/svg11.dtd">
<svg version="1.1" xmlns="http://www.w3.org/2000/svg" xmlns:xlink="http://www.w3.org/1999/xlink" x="0px" y="0px" viewBox="0 0 1000 1000" enable-background="new 0 0 1000 1000" xml:space="preserve">
<metadata> Svg Vector Icons : http://www.onlinewebfonts.com/icon </metadata>
<g><g><path d="M850,10c9.5,0,17.7,3.5,24.6,10.4C881.5,27.3,885,35.5,885,45v910c0,9.5-3.5,17.7-10.4,24.6c-6.9,6.9-15.1,10.4-24.6,10.4H150c-9.5,0-17.7-3.5-24.6-10.4c-6.9-6.9-10.4-15.1-10.4-24.6V45c0-9.5,3.5-17.7,10.4-24.6C132.3,13.5,140.5,10,150,10H850z M395,167.5v35c0,5.1,1.6,9.3,4.9,12.6c3.3,3.3,7.5,4.9,12.6,4.9h35c5.1,0,9.3-1.6,12.6-4.9s4.9-7.5,4.9-12.6v-35c0-5.1-1.6-9.3-4.9-12.6s-7.5-4.9-12.6-4.9h-35c-5.1,0-9.3,1.6-12.6,4.9C396.6,158.2,395,162.4,395,167.5L395,167.5z M395,307.5v35c0,5.1,1.6,9.3,4.9,12.6c3.3,3.3,7.5,4.9,12.6,4.9h35c5.1,0,9.3-1.6,12.6-4.9s4.9-7.5,4.9-12.6v-35c0-5.1-1.6-9.3-4.9-12.6s-7.5-4.9-12.6-4.9h-35c-5.1,0-9.3,1.6-12.6,4.9C396.6,298.2,395,302.4,395,307.5L395,307.5z M395,447.5v35c0,5.1,1.6,9.3,4.9,12.6c3.3,3.3,7.5,4.9,12.6,4.9h35c5.1,0,9.3-1.6,12.6-4.9c3.3-3.3,4.9-7.5,4.9-12.6v-35c0-5.1-1.6-9.3-4.9-12.6c-3.3-3.3-7.5-4.9-12.6-4.9h-35c-5.1,0-9.3,1.6-12.6,4.9C396.6,438.2,395,442.4,395,447.5L395,447.5z M395,587.5v35c0,5.1,1.6,9.3,4.9,12.6c3.3,3.3,7.5,4.9,12.6,4.9h35c5.1,0,9.3-1.6,12.6-4.9c3.3-3.3,4.9-7.5,4.9-12.6v-35c0-5.1-1.6-9.3-4.9-12.6c-3.3-3.3-7.5-4.9-12.6-4.9h-35c-5.1,0-9.3,1.6-12.6,4.9C396.6,578.2,395,582.4,395,587.5L395,587.5z M325,762.5v-35c0-5.1-1.6-9.3-4.9-12.6c-3.3-3.3-7.5-4.9-12.6-4.9h-35c-5.1,0-9.3,1.6-12.6,4.9c-3.3,3.3-4.9,7.5-4.9,12.6v35c0,5.1,1.6,9.3,4.9,12.6c3.3,3.3,7.5,4.9,12.6,4.9h35c5.1,0,9.3-1.6,12.6-4.9C323.4,771.8,325,767.6,325,762.5z M325,622.5v-35c0-5.1-1.6-9.3-4.9-12.6c-3.3-3.3-7.5-4.9-12.6-4.9h-35c-5.1,0-9.3,1.6-12.6,4.9c-3.3,3.3-4.9,7.5-4.9,12.6v35c0,5.1,1.6,9.3,4.9,12.6c3.3,3.3,7.5,4.9,12.6,4.9h35c5.1,0,9.3-1.6,12.6-4.9C323.4,631.8,325,627.6,325,622.5z M325,482.5v-35c0-5.1-1.6-9.3-4.9-12.6c-3.3-3.3-7.5-4.9-12.6-4.9h-35c-5.1,0-9.3,1.6-12.6,4.9c-3.3,3.3-4.9,7.5-4.9,12.6v35c0,5.1,1.6,9.3,4.9,12.6c3.3,3.3,7.5,4.9,12.6,4.9h35c5.1,0,9.3-1.6,12.6-4.9C323.4,491.8,325,487.6,325,482.5z M325,342.5v-35c0-5.1-1.6-9.3-4.9-12.6c-3.3-3.3-7.5-4.9-12.6-4.9h-35c-5.1,0-9.3,1.6-12.6,4.9s-4.9,7.5-4.9,12.6v35c0,5.1,1.6,9.3,4.9,12.6c3.3,3.3,7.5,4.9,12.6,4.9h35c5.1,0,9.3-1.6,12.6-4.9C323.4,351.8,325,347.6,325,342.5L325,342.5z M325,202.5v-35c0-5.1-1.6-9.3-4.9-12.6c-3.3-3.3-7.5-4.9-12.6-4.9h-35c-5.1,0-9.3,1.6-12.6,4.9s-4.9,7.5-4.9,12.6v35c0,5.1,1.6,9.3,4.9,12.6s7.5,4.9,12.6,4.9h35c5.1,0,9.3-1.6,12.6-4.9C323.4,211.8,325,207.6,325,202.5z M605,902.5v-105c0-5.1-1.6-9.3-4.9-12.6c-3.3-3.3-7.5-4.9-12.6-4.9h-175c-5.1,0-9.3,1.6-12.6,4.9c-3.3,3.3-4.9,7.5-4.9,12.6v105c0,5.1,1.6,9.3,4.9,12.6c3.3,3.3,7.5,4.9,12.6,4.9h175c5.1,0,9.3-1.6,12.6-4.9C603.4,911.8,605,907.6,605,902.5z M605,622.5v-35c0-5.1-1.6-9.3-4.9-12.6c-3.3-3.3-7.5-4.9-12.6-4.9h-35c-5.1,0-9.3,1.6-12.6,4.9c-3.3,3.3-4.9,7.5-4.9,12.6v35c0,5.1,1.6,9.3,4.9,12.6c3.3,3.3,7.5,4.9,12.6,4.9h35c5.1,0,9.3-1.6,12.6-4.9C603.4,631.8,605,627.6,605,622.5z M605,482.5v-35c0-5.1-1.6-9.3-4.9-12.6c-3.3-3.3-7.5-4.9-12.6-4.9h-35c-5.1,0-9.3,1.6-12.6,4.9c-3.3,3.3-4.9,7.5-4.9,12.6v35c0,5.1,1.6,9.3,4.9,12.6c3.3,3.3,7.5,4.9,12.6,4.9h35c5.1,0,9.3-1.6,12.6-4.9C603.4,491.8,605,487.6,605,482.5z M605,342.5v-35c0-5.1-1.6-9.3-4.9-12.6c-3.3-3.3-7.5-4.9-12.6-4.9h-35c-5.1,0-9.3,1.6-12.6,4.9c-3.3,3.3-4.9,7.5-4.9,12.6v35c0,5.1,1.6,9.3,4.9,12.6c3.3,3.3,7.5,4.9,12.6,4.9h35c5.1,0,9.3-1.6,12.6-4.9C603.4,351.8,605,347.6,605,342.5L605,342.5z M605,202.5v-35c0-5.1-1.6-9.3-4.9-12.6c-3.3-3.3-7.5-4.9-12.6-4.9h-35c-5.1,0-9.3,1.6-12.6,4.9c-3.3,3.3-4.9,7.5-4.9,12.6v35c0,5.1,1.6,9.3,4.9,12.6c3.3,3.3,7.5,4.9,12.6,4.9h35c5.1,0,9.3-1.6,12.6-4.9C603.4,211.8,605,207.6,605,202.5z M745,762.5v-35c0-5.1-1.6-9.3-4.9-12.6c-3.3-3.3-7.5-4.9-12.6-4.9h-35c-5.1,0-9.3,1.6-12.6,4.9c-3.3,3.3-4.9,7.5-4.9,12.6v35c0,5.1,1.6,9.3,4.9,12.6c3.3,3.3,7.5,4.9,12.6,4.9h35c5.1,0,9.3-1.6,12.6-4.9C743.4,771.8,745,767.6,745,762.5z M745,622.5v-35c0-5.1-1.6-9.3-4.9-12.6c-3.3-3.3-7.5-4.9-12.6-4.9h-35c-5.1,0-9.3,1.6-12.6,4.9c-3.3,3.3-4.9,7.5-4.9,12.6v35c0,5.1,1.6,9.3,4.9,12.6c3.3,3.3,7.5,4.9,12.6,4.9h35c5.1,0,9.3-1.6,12.6-4.9C743.4,631.8,745,627.6,745,622.5z M745,482.5v-35c0-5.1-1.6-9.3-4.9-12.6c-3.3-3.3-7.5-4.9-12.6-4.9h-35c-5.1,0-9.3,1.6-12.6,4.9c-3.3,3.3-4.9,7.5-4.9,12.6v35c0,5.1,1.6,9.3,4.9,12.6c3.3,3.3,7.5,4.9,12.6,4.9h35c5.1,0,9.3-1.6,12.6-4.9C743.4,491.8,745,487.6,745,482.5z M745,342.5v-35c0-5.1-1.6-9.3-4.9-12.6c-3.3-3.3-7.5-4.9-12.6-4.9h-35c-5.1,0-9.3,1.6-12.6,4.9c-3.3,3.3-4.9,7.5-4.9,12.6v35c0,5.1,1.6,9.3,4.9,12.6c3.3,3.3,7.5,4.9,12.6,4.9h35c5.1,0,9.3-1.6,12.6-4.9C743.4,351.8,745,347.6,745,342.5L745,342.5z M745,202.5v-35c0-5.1-1.6-9.3-4.9-12.6c-3.3-3.3-7.5-4.9-12.6-4.9h-35c-5.1,0-9.3,1.6-12.6,4.9c-3.3,3.3-4.9,7.5-4.9,12.6v35c0,5.1,1.6,9.3,4.9,12.6c3.3,3.3,7.5,4.9,12.6,4.9h35c5.1,0,9.3-1.6,12.6-4.9C743.4,211.8,745,207.6,745,202.5z"/></g></g>
</svg>