<?xml version="1.0" encoding="utf-8"?>
<!-- Svg Vector Icons : http://www.onlinewebfonts.com/icon -->
<!DOCTYPE svg PUBLIC "-//W3C//DTD SVG 1.1//EN" "http://www.w3.org/Graphics/SVG/1.1/DTD/svg11.dtd">
<svg version="1.1" xmlns="http://www.w3.org/2000/svg" xmlns:xlink="http://www.w3.org/1999/xlink" x="0px" y="0px" viewBox="0 0 1000 1000" enable-background="new 0 0 1000 1000" xml:space="preserve">
<metadata> Svg Vector Icons : http://www.onlinewebfonts.com/icon </metadata>
<g><g transform="translate(0.000000,224.000000) scale(0.100000,-0.100000)"><path d="M608,1840.1C232.3,1132.4,66.3,433.4,105.6-322.3c30.6-672.8,152.9-1114,681.5-2455.1c616-1550.9,760.1-2236.7,659.6-3049.3c-61.1-502.4-179.1-878.1-441.2-1397.9l-209.7-428.1h3857.5h3857.5l200.9,401.9c554.8,1122.7,607.3,2136.2,179.1,3438.1c-91.8,266.5-174.7,484.9-187.8,484.9c-17.5,0-144.2-118-284-257.8l-257.8-257.7l118-410.7c270.9-956.7,240.3-1616.4-126.7-2516.3l-74.3-183.5H4998.4H1923l30.6,100.5c144.2,441.3,200.9,773.3,222.8,1275.6c39.3,939.2-69.9,1402.3-738.3,3092.9C839.6-964.5,721.6-383.5,852.7,381C892,603.8,983.7,935.8,1058,1110.6l135.4,323.3h3075.5c1690.6,0,3075.5-4.4,3075.5-8.7c0-8.7-30.6-104.8-65.5-218.4c-34.9-117.9-48-209.7-30.6-209.7c17.5,0,288.3,257.7,598.5,567.9l567.9,567.9H4587.8H765.3L608,1840.1z"/><path d="M7934.1,210.6l-524.2-524.2l712.1-712.1l707.7-707.7l533,537.3l537.3,533l-699,699c-384.4,384.4-707.7,699-720.8,699S8222.5,499,7934.1,210.6z"/><path d="M5675.6-2047.9L4286.4-3437.1l-349.5-1044.1c-192.2-576.6-340.7-1052.8-336.4-1061.6c8.7-4.4,484.9,144.2,1061.6,336.4l1044.1,349.5L7104.1-3459L8502.1-2061l-362.6,358.2l-358.2,362.6L6383.3-2738.2l-1398-1397.9l-218.4,218.4l-218.4,218.4l1397.9,1397.9L7348.8-899L7222.1-781c-65.5,65.5-131.1,118-144.2,118C7069.2-663.1,6435.7-1287.8,5675.6-2047.9z"/></g></g>
</svg>