<?xml version="1.0" encoding="utf-8"?>
<!-- Svg Vector Icons : http://www.onlinewebfonts.com/icon -->
<!DOCTYPE svg PUBLIC "-//W3C//DTD SVG 1.1//EN" "http://www.w3.org/Graphics/SVG/1.1/DTD/svg11.dtd">
<svg version="1.1" xmlns="http://www.w3.org/2000/svg" xmlns:xlink="http://www.w3.org/1999/xlink" x="0px" y="0px" viewBox="0 0 1000 1000" enable-background="new 0 0 1000 1000" xml:space="preserve">
<metadata> Svg Vector Icons : http://www.onlinewebfonts.com/icon </metadata>
<g><g transform="translate(0.000000,512.000000) scale(0.100000,-0.100000)"><path d="M4327.6,5014.1c-2185.9-9.6-2341.8-11.5-2386-42.3c-25-19.2-69.3-34.6-98.1-34.6c-92.4,0-419.5-92.4-546.5-155.9c-298.3-146.2-521.5-490.7-596.5-912.1c-25-148.2-28.9-652.3-28.9-3996.6c0-4021.6-3.9-3854.2,75-3979.2c9.6-15.4,48.1-96.2,86.6-178.9c84.7-184.7,246.3-356,409.9-432.9l111.6-52l3600.2-5.8l3600.2-3.8l63.5,42.3c127,88.5,134.7,123.1,134.7,644.6v467.6h190.5c163.6,0,196.3,5.8,252.1,42.3c34.6,25,78.9,75,100.1,111.6c34.6,65.4,34.6,204,30.8,4189l-5.8,4121.6l-40.4,53.9c-94.3,125.1-28.9,119.3-1383.5,125.1C7219.7,5021.8,5613,5019.9,4327.6,5014.1z M6444.2,2824.4c0-1531.7,1.9-1614.4,36.6-1677.9c42.3-80.8,159.7-153.9,248.2-153.9c100.1,0,171.3,48.1,384.8,255.9l196.3,194.4l198.2-194.4c207.8-205.9,282.9-255.9,381-255.9c94.3,0,204,73.1,248.2,163.6c38.5,77,38.5,119.3,38.5,1679.8v1600.9h288.6h288.6V694.3v-3742.6H5578.4H2403.4V694.3v3742.6h2020.4h2020.4V2824.4z M7598.8,3215c0-671.5-7.7-1221.9-15.4-1221.9c-9.6,0-40.4,25-71.2,57.7c-113.5,117.4-255.9,121.2-404.1,9.6l-86.6-67.3V3215v1221.9h288.6h288.6V3215z M1826.2,646.2v-3694.5h-161.6c-148.2,0-173.2-5.8-288.6-67.3l-127-67.3l3.9,3496.3l5.8,3498.2l44.3,115.4c48.1,130.8,125.1,248.2,198.2,302.1c26.9,21.2,109.7,53.9,182.8,73.1c73.1,19.2,134.7,36.6,138.5,36.6C1824.2,4340.7,1826.2,2678.2,1826.2,646.2z M8176-3914.1v-288.6H4818.3c-2928.6,0-3367.3,3.8-3415.5,28.9c-117.4,61.6-177,200.1-136.6,323.3c26.9,78.9,130.8,182.8,205.9,205.9c30.8,7.7,1550.9,17.3,3380.8,17.3l3323.1,1.9V-3914.1z"/><path d="M4250.6-1936.1c-103.9-53.9-157.8-138.5-157.8-255.9c0-102,52-196.3,136.6-246.3c55.8-32.7,152-34.6,1612.5-32.7c1435.4,0,1556.7,3.9,1608.6,34.6c98.1,55.8,138.5,128.9,138.5,244.4c0,111.6-34.6,175.1-132.8,248.2c-51.9,40.4-71.2,40.4-1585.5,46.2l-1533.6,3.8L4250.6-1936.1z"/></g></g>
</svg>