<?xml version="1.0" encoding="utf-8"?>
<!-- Svg Vector Icons : http://www.onlinewebfonts.com/icon -->
<!DOCTYPE svg PUBLIC "-//W3C//DTD SVG 1.1//EN" "http://www.w3.org/Graphics/SVG/1.1/DTD/svg11.dtd">
<svg version="1.1" xmlns="http://www.w3.org/2000/svg" xmlns:xlink="http://www.w3.org/1999/xlink" x="0px" y="0px" viewBox="0 0 1000 1000" enable-background="new 0 0 1000 1000" xml:space="preserve">
<metadata> Svg Vector Icons : http://www.onlinewebfonts.com/icon </metadata>
<g><path d="M989.8,90.2c-2.8,90.3-22.4,177.1-55.2,261.3c-39.2,100.6-96.6,189.2-177.1,262.4c-6.5,5.9-8.6,12.3-7.7,20.7c2.8,27.1,5,54.2,7.8,81.3c6.6,63.1-15.7,114.8-67,151.5c-55.1,39.3-112.3,75.6-169.1,112.5c-35.7,23.2-79.8,2.1-83.8-40c-4.6-48.3-8.2-96.8-11.6-145.3c-1.7-24.2-1.1-24.5-24.7-27.6c-62.8-8.2-112-37.8-145.8-91.5c-17.4-27.6-25.9-58.2-29-90.3c-0.9-9.6-4.8-12.1-14-12.6c-50.8-2.8-101.7-5.8-152.4-9.6c-42.3-3.2-63.7-47.3-41-84.2c15.9-25.9,32.8-51.2,49.2-76.8c17.7-27.6,35.3-55.2,53-82.8c32.4-50.4,79.2-77.6,139.1-78.1c34.3-0.3,68.6,5.7,102.9,9.4c6.5,0.7,11.1-0.2,15.6-5.2c79.5-88.2,178-147.8,289.5-187.6c63-22.5,127.8-37.2,194.3-44c33.5-3.4,67.3-4.7,100.8,1.5c18.3,3.4,19.2,4.1,22,21.8C988.4,54.4,990.7,72.2,989.8,90.2L989.8,90.2z M797.9,312.9c0.7-59.5-49-110.7-108-111.7c-61.4-1-114.5,43.2-116,112.4c-1.2,57.7,51.4,109.9,110.1,110.3C746.5,424.2,797.1,375,797.9,312.9L797.9,312.9z M138,652.8c15.1,0.2,23.4,6.8,28.8,22.1C188,734.6,226.5,780,282.3,810.7c12.3,6.8,25.3,12.3,38.7,16.8c24.1,8.1,29.6,31.4,11.7,49.4c-26.5,26.5-53.3,52.8-79.8,79.3c-8.7,8.8-18.4,12.9-30.7,8.4c-12.5-4.6-18.5-13.8-19.2-26.7c-0.4-8.2-0.2-16.4-0.4-24.5c-0.4-15-0.5-15.1-14.4-10.5c-29.7,9.8-59.4,19.7-89.2,29.4c-8.7,2.9-17.6,4.1-26.1-0.8c-12.6-7.1-17.3-19.7-12.3-35.2c9.9-30.3,20.3-60.5,30.4-90.8c4.4-13.2,4.1-13.4-10.2-13.7c-8.6-0.1-17.3,0-25.9-0.4c-12.5-0.6-21.5-6.6-26.1-18.4c-4.6-11.5-1.7-21.5,6.8-29.9c27.6-27.6,55.4-55,83.1-82.5C124.3,655.2,130.9,652.1,138,652.8L138,652.8z"/></g>
</svg>