<svg width="400" height="200" xmlns="http://www.w3.org/2000/svg">

 <g>
  <title>Layer 1</title>
  <ellipse stroke="#0000bf" stroke-width="5" ry="146" rx="268.49998" id="svg_1" cy="233.29186" cx="404.69659" fill="#fff"/>
  <path stroke="#fff" stroke-width="8" id="svg_3" d="m205.64135,302.90032l400.4317,0.08349l-12.9941,10.48732l-374.29008,-0.25045l-13.14754,-10.32036l0.00002,0zm2.75181,-139.50525l395.08095,-0.25045l11.46569,10.75839l-418.16539,0.08349l11.61875,-10.59143zm-38.98966,69.9042l472.75432,-0.25045l-0.61109,10.7584l-471.83748,-0.16696l-0.30575,-10.34099zm473.14566,0.99783c0,71.22317 -106.12276,129.16394 -236.5867,129.16394c-130.40758,0 -236.51057,-57.95123 -236.51057,-129.16394c0,-71.21304 106.12217,-129.1538 236.51057,-129.1538c130.46396,-0.01047 236.5867,57.94076 236.5867,129.1538zm-236.56813,-139.50525c-140.81743,0 -258.28444,62.57619 -258.28444,139.49476c0,76.92906 117.46701,139.50524 258.28444,139.50524c140.89411,0 249.71557,-64.53408 249.71557,-141.46314c0,-76.91856 -108.82144,-137.53686 -249.71557,-137.53686zm71.67493,139.50525c0,76.10789 -37.75967,129.16394 -71.67493,129.16394c-33.87689,0 -71.63595,-53.05605 -71.63595,-129.16394c0,-76.12884 37.74045,-129.1538 71.63595,-129.1538c33.89612,-0.01047 71.67493,53.02496 71.67493,129.1538zm-71.67493,-139.50525c-58.82734,0 -90.57271,71.87782 -90.57271,139.49476c0,67.6376 31.74537,139.50524 90.57271,139.50524c58.82794,0 90.63083,-71.8781 90.63083,-139.50524c-0.01917,-67.61694 -31.80289,-139.49476 -90.63083,-139.49476zm167.86233,139.50525c0,71.22317 -75.32877,129.16394 -167.86233,129.16394c-92.51433,0 -167.80478,-57.95123 -167.80478,-129.16394c0,-71.21304 75.29045,-129.1538 167.80478,-129.1538c92.53356,-0.01047 167.86233,57.94076 167.86233,129.1538zm-167.86233,-139.50525c-102.94396,0 -186.74151,62.57619 -186.74151,139.49476c0,76.92906 83.79755,139.50524 186.74151,139.50524c102.98232,0 186.76128,-62.57618 186.76128,-139.50524c0,-76.91857 -83.77896,-139.49476 -186.76128,-139.49476z" fill="#0000bf"/>
 </g>
</svg>