<?xml version="1.0" encoding="utf-8"?>
<!-- Svg Vector Icons : http://www.onlinewebfonts.com/icon -->
<!DOCTYPE svg PUBLIC "-//W3C//DTD SVG 1.1//EN" "http://www.w3.org/Graphics/SVG/1.1/DTD/svg11.dtd">
<svg version="1.1" xmlns="http://www.w3.org/2000/svg" xmlns:xlink="http://www.w3.org/1999/xlink" x="0px" y="0px" viewBox="0 0 1000 1000" enable-background="new 0 0 1000 1000" xml:space="preserve">
<metadata> Svg Vector Icons : http://www.onlinewebfonts.com/icon </metadata>
<g><g transform="translate(0.000000,512.000000) scale(0.100000,-0.100000)"><path d="M4857.4,5013.9c-176.4-46-331.7-172.6-412.2-337.5c-47.9-93.9-47.9-103.5-47.9-565.6s0-471.7,47.9-565.6c61.4-122.7,176.4-237.7,297.2-297.2c140-67.1,381.6-67.1,517.7,0c122.7,59.4,237.8,174.5,297.2,297.2c47.9,93.9,47.9,103.5,47.9,565.6s0,471.7-47.9,565.6c-61.4,122.7-176.4,237.7-297.2,295.3C5156.5,5019.6,4960.9,5040.7,4857.4,5013.9z"/><path d="M1755.1,3736.9c-159.1-59.4-310.6-212.8-368.1-373.9c-42.2-118.9-36.4-302.9,11.5-435.2c36.4-97.8,80.5-149.6,341.3-410.3c362.4-362.4,410.3-391.1,663.4-391.1c155.3,0,182.1,5.7,274.2,55.6c115,65.2,212.8,163,276.1,283.8c36.4,69,44.1,113.1,44.1,255c0,253.1-28.8,301-391.1,663.4c-260.8,260.8-312.5,304.9-410.3,341.3C2067.7,3773.3,1868.3,3777.2,1755.1,3736.9z"/><path d="M7800.5,3725.4c-88.2-34.5-153.4-90.1-414.1-350.9c-274.2-274.2-314.5-322.1-352.8-423.7c-34.5-92-40.3-143.8-34.5-258.8c13.4-228.2,128.5-406.5,331.7-513.8c82.4-44.1,118.9-51.8,268.4-51.8c253.1,0,301,28.8,663.4,391.1c264.6,264.6,304.9,312.5,341.3,414.1c57.5,151.5,51.8,360.4-13.4,492.8c-57.5,115-172.6,230.1-287.6,287.6C8174.4,3775.3,7944.3,3781,7800.5,3725.4z"/><path d="M4732.8,2565.4c-1058.4-136.1-1898.2-893.5-2130.2-1925c-78.6-354.7-67.1-839.8,32.6-1186.8c92-320.2,224.3-558,557.9-995.1c406.5-533,538.8-818.7,573.3-1240.5l13.4-163h1221.3h1221.4l13.4,164.9c34.5,421.8,168.7,711.3,577.1,1244.4c241.6,316.4,324,442.9,421.8,648.1c306.8,640.4,289.5,1447.6-44.1,2112.9c-122.7,247.3-237.8,402.6-469.7,638.5c-318.3,324-734.3,552.2-1202.2,657.7C5359.7,2557.8,4884.2,2584.6,4732.8,2565.4z"/><path d="M562.6,719c-174.5-44.1-331.7-172.6-412.2-337.5c-67.1-140-67.1-381.5,0-517.7c59.4-122.7,174.5-237.7,297.2-297.2c93.9-47.9,103.5-47.9,565.6-47.9s471.7,0,565.6,47.9c122.7,59.4,237.7,174.5,297.2,297.2c38.3,78.6,47.9,124.6,47.9,258.8c-1.9,149.6-7.7,174.5-67.1,283.8c-69,132.3-151.5,209-287.6,276.1c-80.5,40.3-113.1,44.1-517.7,47.9C813.7,732.4,595.2,726.7,562.6,719z"/><path d="M8490.8,705.6c-270.3-97.8-439.1-350.9-418-627c19.2-220.5,151.5-414.1,350.9-511.9c94-47.9,103.5-47.9,565.6-47.9c462.1,0,471.7,0,565.6,47.9c122.7,59.4,237.8,174.5,297.2,297.2c38.3,78.6,47.9,124.6,47.9,258.8c0,134.2-9.6,180.2-47.9,258.8c-59.4,122.7-174.5,237.8-297.2,297.2c-92,46-111.2,47.9-536.9,51.8C8653.7,734.4,8561.7,730.5,8490.8,705.6z"/><path d="M3781.8-3646.7c24.9-189.8,136.1-349,393.1-565.6c99.7-82.5,226.3-207.1,281.9-274.2c166.8-203.2,343.2-299.1,544.5-299.1c201.3,0,377.7,95.9,544.5,299.1c55.6,67.1,182.1,191.7,281.8,274.2c256.9,216.7,368.1,375.8,393.1,565.6l13.4,88.2H5001.2H3768.4L3781.8-3646.7z"/></g></g>
</svg>