<?xml version="1.0" encoding="utf-8"?>
<!-- Svg Vector Icons : http://www.onlinewebfonts.com/icon -->
<!DOCTYPE svg PUBLIC "-//W3C//DTD SVG 1.1//EN" "http://www.w3.org/Graphics/SVG/1.1/DTD/svg11.dtd">
<svg version="1.1" xmlns="http://www.w3.org/2000/svg" xmlns:xlink="http://www.w3.org/1999/xlink" x="0px" y="0px" viewBox="0 0 1000 1000" enable-background="new 0 0 1000 1000" xml:space="preserve">
<metadata> Svg Vector Icons : http://www.onlinewebfonts.com/icon </metadata>
<g><g transform="translate(0.000000,511.000000) scale(0.100000,-0.100000)"><path d="M4662.9,4958.9c-36.8-36.8-51.1-71.5-51.1-132.8c0-61.3-8.2-81.7-32.7-81.7c-16.3,0-118.5-28.6-224.7-63.3l-192-65.4v-422.9c0-398.4-2-427-42.9-478.1c-55.2-69.5-175.7-75.6-234.9-10.2c-34.7,36.8-40.9,85.8-49,380l-10.2,337.1l-81.7-61.3c-465.8-337.1-817.2-943.9-862.1-1485.2l-12.3-143l-143-134.8c-136.9-130.8-143-138.9-130.8-210.4c47-290.1,582.2-547.5,1362.7-655.8c316.7-45,1350.4-63.3,1718.1-32.7c790.6,67.4,1350.4,239,1609.9,490.3c175.7,171.6,167.5,255.4-36.8,410.6l-141,108.3l-12.3,138.9c-57.2,563.9-363.6,1127.7-804.9,1475l-124.6,96l-6.1-335c-6.1-296.2-10.2-339.1-45-377.9c-59.2-65.4-179.8-59.2-234.9,10.2c-40.9,51.1-42.9,79.7-42.9,471.9v416.8l-94,38.8c-51.1,22.5-151.2,57.2-224.7,75.6l-130.8,34.7v79.7c0,55.2-14.3,91.9-51.1,126.7c-47,49-59.2,51.1-337.1,51.1C4722.2,5010,4709.9,5008,4662.9,4958.9z"/><path d="M2981.5,1563.5c-155.3-222.7-122.6-749.8,73.5-1140c67.4-134.8,198.2-326.9,292.1-429c47-51.1,94-134.8,122.6-214.5c269.7-788.6,952-1315.7,1626.2-1258.5c623.1,51.1,1195.1,555.7,1434.2,1258.5c28.6,79.7,75.6,163.4,122.6,214.5c89.9,98.1,222.7,292.1,288.1,418.8c175.7,345.3,228.8,845.8,112.4,1088.9c-57.2,122.6-73.5,128.7-241.1,79.7c-641.5-188-1613.9-269.7-2427.1-208.4c-388.2,30.6-905,114.4-1142,183.9c-112.4,34.7-206.3,61.3-212.5,61.3C3024.4,1618.7,3004,1594.1,2981.5,1563.5z"/><path d="M3320.7-947.3l-179.8-73.6V-1979v-958.2H5000h1859.1v958.2v958.1l-177.7,71.5l-179.8,73.6l-51.1-65.4c-208.4-267.6-471.9-484.2-745.7-617c-232.9-112.4-377.9-151.2-623.1-167.5c-545.5-32.7-1080.7,237-1513.8,764.1l-69.5,85.8L3320.7-947.3z"/><path d="M2282.8-1382.5c-606.8-271.7-913.2-506.7-1168.6-892.8C811.9-2732.9,587.2-3450,587.2-3960.7c0-200.2,6.1-208.4,173.7-277.9c126.7-53.1,445.4-155.2,623.1-200.2c73.6-18.4,149.1-36.8,167.5-42.9c30.6-8.2,34.7,34.7,40.9,506.7l6.1,518.9l67.4,134.9c122.6,251.3,314.6,363.7,641.5,380l200.2,10.2v813.1c0,639.5-6.1,815.1-24.5,815.1C2468.7-1302.8,2378.9-1339.6,2282.8-1382.5z"/><path d="M7492.4-2115.9v-817.2l241.1-6.1c222.7-8.2,249.3-12.3,375.9-75.6c149.1-73.6,251.3-175.7,326.9-328.9c44.9-89.9,47-120.5,53.1-608.8c4.1-284,10.2-516.9,12.3-516.9c32.7,0,492.4,141,643.5,196.1c267.6,100.1,267.6,100.1,267.6,312.6c0,422.9-155.3,997-394.3,1462.8c-169.6,328.9-443.3,633.3-735.5,823.3c-149.1,96-641.5,339.1-735.5,361.6l-55.2,14.3V-2115.9z"/><path d="M2221.5-4089.4v-516.9l251.3-32.7c1479.1-196.1,3487.4-202.3,4968.5-12.3c179.8,22.5,347.3,45,373.9,53.1l45,10.2v508.7v508.7H5040.9H2221.5V-4089.4z"/></g></g>
</svg>